<svg width="1280" height="720" xmlns="http://www.w3.org/2000/svg" xmlns:xlink="http://www.w3.org/1999/xlink" overflow="hidden"><g><rect x="0" y="0" width="1280" height="720"/><path d="M718.084 218.205 685 74" stroke="#FFFFFF" stroke-width="8" stroke-miterlimit="8" fill="none" fill-rule="evenodd"/><path d="M576.943 53C724.248 59.0467 871.553 65.0934 834.096 137.264 796.64 209.434 440.803 393.566 352.204 486.022 263.605 578.478 283.054 635.239 302.502 692" stroke="#FFFFFF" stroke-width="8" stroke-miterlimit="8" fill="none" fill-rule="evenodd"/><path d="M0 0 162.077 271.503" stroke="#FFFFFF" stroke-width="8" stroke-miterlimit="8" fill="none" fill-rule="evenodd" transform="matrix(1 0 0 -1 523 345.503)"/><path d="M744.772 344.997 722 241" stroke="#FFFFFF" stroke-width="8" stroke-miterlimit="8" fill="none" fill-rule="evenodd"/><path d="M742.615 332.922C746.33 347.936 750.045 362.951 761.701 355.391 773.357 347.83 812.55 287.562 812.55 287.562 821.061 276.329 816.913 282.163 812.765 287.997" stroke="#FFFFFF" stroke-width="8" stroke-miterlimit="8" fill="none" fill-rule="evenodd"/><path d="M0 0 146.466 211.426" stroke="#FFFFFF" stroke-width="8" stroke-miterlimit="8" fill="none" fill-rule="evenodd" transform="matrix(1 0 0 -1 817 281.426)"/></g></svg>