<svg width="540" height="497" xmlns="http://www.w3.org/2000/svg" xmlns:xlink="http://www.w3.org/1999/xlink" xml:space="preserve" overflow="hidden"><g transform="translate(-354 -123)"><path d="M495.677 150.622 472.84 51.0806" stroke="#FFFFFF" stroke-width="5.52222" stroke-miterlimit="8" fill="none" fill-rule="evenodd" transform="matrix(1.00122 0 0 1 197.702 123)"/><path d="M398.251 36.5847C499.932 40.7586 601.614 44.9325 575.758 94.7503 549.903 144.568 304.277 271.67 243.119 335.49 181.961 399.311 195.386 438.491 208.81 477.672" stroke="#FFFFFF" stroke-width="5.52222" stroke-miterlimit="8" fill="none" fill-rule="evenodd" transform="matrix(1.00122 0 0 1 197.702 123)"/><path d="M0 0 111.878 187.412" stroke="#FFFFFF" stroke-width="5.52222" stroke-miterlimit="8" fill="none" fill-rule="evenodd" transform="matrix(1.00122 0 0 -1 559.159 361.493)"/><path d="M514.1 238.144 498.381 166.357" stroke="#FFFFFF" stroke-width="5.52222" stroke-miterlimit="8" fill="none" fill-rule="evenodd" transform="matrix(1.00122 0 0 1 197.702 123)"/><path d="M512.611 229.809C515.175 240.172 517.739 250.537 525.785 245.318 533.831 240.099 560.885 198.498 560.885 198.498 566.76 190.744 563.897 194.771 561.034 198.798" stroke="#FFFFFF" stroke-width="5.52222" stroke-miterlimit="8" fill="none" fill-rule="evenodd" transform="matrix(1.00122 0 0 1 197.702 123)"/><path d="M0 0 101.102 145.943" stroke="#FFFFFF" stroke-width="5.52222" stroke-miterlimit="8" fill="none" fill-rule="evenodd" transform="matrix(1.00122 0 0 -1 762.349 317.262)"/></g></svg>